<?xml version="1.0" encoding="UTF-8" standalone="no"?>
<!DOCTYPE svg PUBLIC "-//W3C//DTD SVG 1.1//EN"
 "http://www.w3.org/Graphics/SVG/1.1/DTD/svg11.dtd">
<!-- Generated by graphviz version 2.40.1 (20161225.0304)
 -->
<!-- Title: %3 Pages: 1 -->
<svg width="708pt" height="603pt"
 viewBox="0.00 0.00 708.41 603.00" xmlns="http://www.w3.org/2000/svg" xmlns:xlink="http://www.w3.org/1999/xlink">
<g id="graph0" class="graph" transform="scale(1 1) rotate(0) translate(4 599)">
<title>%3</title>
<polygon fill="#3f3f3f" stroke="transparent" points="-4,4 -4,-599 704.4091,-599 704.4091,4 -4,4"/>
<text text-anchor="middle" x="350.2046" y="-9.2" font-family="Times,serif" font-size="16.00" fill="#ffffff">Network Map</text>
<!-- R1 -->
<g id="node1" class="node">
<title>R1</title>
<polygon fill="#006699" stroke="#006699" points="250.9091,-99 173.9091,-99 173.9091,-26 250.9091,-26 250.9091,-99"/>
<text text-anchor="middle" x="212.4091" y="-58.8" font-family="Helvetica,sans-Serif" font-size="14.00" fill="#ffffff">R1</text>
</g>
<!-- SW1 -->
<g id="node3" class="node">
<title>SW1</title>
<polygon fill="#006699" stroke="#006699" points="257.9091,-223 166.9091,-223 166.9091,-150 257.9091,-150 257.9091,-223"/>
<text text-anchor="middle" x="212.4091" y="-182.8" font-family="Helvetica,sans-Serif" font-size="14.00" fill="#ffffff">SW1</text>
</g>
<!-- R1&#45;&#45;SW1 -->
<g id="edge4" class="edge">
<title>R1&#45;&#45;SW1</title>
<path fill="none" stroke="#00ff00" stroke-dasharray="5,2" d="M173.8316,-85.0745C157.7958,-97.599 144.538,-114.2169 152.4091,-132 155.8266,-139.7209 160.938,-146.8165 166.7616,-153.1556"/>
<text text-anchor="middle" x="202.4091" y="-120.8" font-family="Courier,monospace" font-size="14.00" fill="#ffffff"> &#160;&#160;&#160;&#160;&#160;&#160;&#160;&#160;&#160;&#160;&#160;</text>
<text text-anchor="middle" x="137.7616" y="-141.9556" font-family="Courier,monospace" font-size="14.00" fill="#ffffff">Eth 0/1</text>
<text text-anchor="middle" x="144.8316" y="-73.8745" font-family="Courier,monospace" font-size="14.00" fill="#ffffff">Eth 0/0</text>
</g>
<!-- R4 -->
<g id="node2" class="node">
<title>R4</title>
<polygon fill="#006699" stroke="#006699" points="171.9091,-595 94.9091,-595 94.9091,-522 171.9091,-522 171.9091,-595"/>
<text text-anchor="middle" x="133.4091" y="-554.8" font-family="Helvetica,sans-Serif" font-size="14.00" fill="#ffffff">R4</text>
</g>
<!-- R4&#45;&#45;SW1 -->
<g id="edge2" class="edge">
<title>R4&#45;&#45;SW1</title>
<path fill="none" stroke="#00ff00" stroke-dasharray="5,2" d="M124.435,-521.7461C111.3817,-459.9033 93.49,-332.8079 140.4091,-241 146.402,-229.2737 156.2139,-219.375 166.6935,-211.3671"/>
<text text-anchor="middle" x="161.4091" y="-368.8" font-family="Courier,monospace" font-size="14.00" fill="#ffffff"> &#160;&#160;&#160;&#160;&#160;&#160;&#160;&#160;&#160;&#160;&#160;</text>
<text text-anchor="middle" x="137.6935" y="-200.1671" font-family="Courier,monospace" font-size="14.00" fill="#ffffff">Eth 0/4</text>
<text text-anchor="middle" x="95.435" y="-510.5461" font-family="Courier,monospace" font-size="14.00" fill="#ffffff">Eth 0/0</text>
</g>
<!-- R5 -->
<g id="node5" class="node">
<title>R5</title>
<polygon fill="#006699" stroke="#006699" points="311.9091,-471 234.9091,-471 234.9091,-398 311.9091,-398 311.9091,-471"/>
<text text-anchor="middle" x="273.4091" y="-430.8" font-family="Helvetica,sans-Serif" font-size="14.00" fill="#ffffff">R5</text>
</g>
<!-- R4&#45;&#45;R5 -->
<g id="edge3" class="edge">
<title>R4&#45;&#45;R5</title>
<path fill="none" stroke="#00ff00" stroke-dasharray="5,2" d="M172.1067,-549.4147C197.9028,-541.4767 230.7461,-527.4481 251.4091,-504 259.4419,-494.8845 264.5439,-482.8322 267.7835,-471.3275"/>
<text text-anchor="middle" x="311.4091" y="-492.8" font-family="Courier,monospace" font-size="14.00" fill="#ffffff"> &#160;&#160;&#160;&#160;&#160;&#160;&#160;&#160;&#160;&#160;&#160;</text>
<text text-anchor="middle" x="238.7835" y="-475.1275" font-family="Courier,monospace" font-size="14.00" fill="#ffffff">Eth 0/1</text>
<text text-anchor="middle" x="201.1067" y="-538.2147" font-family="Courier,monospace" font-size="14.00" fill="#ffffff">Eth 0/1</text>
</g>
<!-- SW1&#45;&#45;R1 -->
<g id="edge7" class="edge">
<title>SW1&#45;&#45;R1</title>
<path fill="none" stroke="#00ff00" stroke-dasharray="5,2" d="M247.0392,-149.9505C252.9208,-139.6852 256.093,-128.2454 252.4091,-117 250.3996,-110.8656 247.4072,-104.8514 243.947,-99.189"/>
<text text-anchor="middle" x="304.4091" y="-120.8" font-family="Courier,monospace" font-size="14.00" fill="#ffffff"> &#160;&#160;&#160;&#160;&#160;&#160;&#160;&#160;&#160;&#160;&#160;</text>
<text text-anchor="middle" x="214.947" y="-102.989" font-family="Courier,monospace" font-size="14.00" fill="#ffffff">Eth 0/0</text>
<text text-anchor="middle" x="218.0392" y="-138.7505" font-family="Courier,monospace" font-size="14.00" fill="#ffffff">Eth 0/1</text>
</g>
<!-- SW1&#45;&#45;R4 -->
<g id="edge10" class="edge">
<title>SW1&#45;&#45;R4</title>
<path fill="none" stroke="#00ff00" stroke-dasharray="5,2" d="M166.9038,-209.2385C116.0424,-237.6296 36.8331,-291.5501 6.4091,-365 -20.4244,-429.782 48.3322,-496.1546 94.8305,-531.8494"/>
<text text-anchor="middle" x="56.4091" y="-368.8" font-family="Courier,monospace" font-size="14.00" fill="#ffffff"> &#160;&#160;&#160;&#160;&#160;&#160;&#160;&#160;&#160;&#160;&#160;</text>
<text text-anchor="middle" x="65.8305" y="-535.6494" font-family="Courier,monospace" font-size="14.00" fill="#ffffff">Eth 0/0</text>
<text text-anchor="middle" x="137.9038" y="-213.0385" font-family="Courier,monospace" font-size="14.00" fill="#ffffff">Eth 0/4</text>
</g>
<!-- R3 -->
<g id="node4" class="node">
<title>R3</title>
<polygon fill="#006699" stroke="#006699" points="267.9091,-347 190.9091,-347 190.9091,-274 267.9091,-274 267.9091,-347"/>
<text text-anchor="middle" x="229.4091" y="-306.8" font-family="Helvetica,sans-Serif" font-size="14.00" fill="#ffffff">R3</text>
</g>
<!-- SW1&#45;&#45;R3 -->
<g id="edge9" class="edge">
<title>SW1&#45;&#45;R3</title>
<path fill="none" stroke="#00ff00" stroke-dasharray="5,2" d="M166.8057,-211.287C150.6378,-223.5301 138.4326,-239.2556 147.4091,-256 156.697,-273.3251 174.1877,-286.0827 190.6372,-294.8802"/>
<text text-anchor="middle" x="197.4091" y="-244.8" font-family="Courier,monospace" font-size="14.00" fill="#ffffff"> &#160;&#160;&#160;&#160;&#160;&#160;&#160;&#160;&#160;&#160;&#160;</text>
<text text-anchor="middle" x="161.6372" y="-283.6802" font-family="Courier,monospace" font-size="14.00" fill="#ffffff">Eth 0/0</text>
<text text-anchor="middle" x="195.8057" y="-215.087" font-family="Courier,monospace" font-size="14.00" fill="#ffffff">Eth 0/3</text>
</g>
<!-- R2 -->
<g id="node6" class="node">
<title>R2</title>
<polygon fill="#006699" stroke="#006699" points="434.9091,-347 357.9091,-347 357.9091,-274 434.9091,-274 434.9091,-347"/>
<text text-anchor="middle" x="396.4091" y="-306.8" font-family="Helvetica,sans-Serif" font-size="14.00" fill="#ffffff">R2</text>
</g>
<!-- SW1&#45;&#45;R2 -->
<g id="edge8" class="edge">
<title>SW1&#45;&#45;R2</title>
<path fill="none" stroke="#00ff00" stroke-dasharray="5,2" d="M258.1484,-195.0696C289.0268,-202.7743 329.1499,-216.7359 357.4091,-241 367.6965,-249.833 375.8229,-262.0881 381.9352,-273.8509"/>
<text text-anchor="middle" x="420.4091" y="-244.8" font-family="Courier,monospace" font-size="14.00" fill="#ffffff"> &#160;&#160;&#160;&#160;&#160;&#160;&#160;&#160;&#160;&#160;&#160;</text>
<text text-anchor="middle" x="352.9352" y="-262.6509" font-family="Courier,monospace" font-size="14.00" fill="#ffffff">Eth 0/0</text>
<text text-anchor="middle" x="287.1484" y="-198.8696" font-family="Courier,monospace" font-size="14.00" fill="#ffffff">Eth 0/2</text>
</g>
<!-- R3&#45;&#45;SW1 -->
<g id="edge1" class="edge">
<title>R3&#45;&#45;SW1</title>
<path fill="none" stroke="#00ff00" stroke-dasharray="5,2" d="M249.7948,-273.6922C253.2766,-263.1309 254.8126,-251.6046 251.4091,-241 249.4536,-234.9069 246.5382,-228.9164 243.1656,-223.2656"/>
<text text-anchor="middle" x="303.4091" y="-244.8" font-family="Courier,monospace" font-size="14.00" fill="#ffffff"> &#160;&#160;&#160;&#160;&#160;&#160;&#160;&#160;&#160;&#160;&#160;</text>
<text text-anchor="middle" x="272.1656" y="-227.0656" font-family="Courier,monospace" font-size="14.00" fill="#ffffff">Eth 0/3</text>
<text text-anchor="middle" x="220.7948" y="-262.4922" font-family="Courier,monospace" font-size="14.00" fill="#ffffff">Eth 0/0</text>
</g>
<!-- R5&#45;&#45;R4 -->
<g id="edge6" class="edge">
<title>R5&#45;&#45;R4</title>
<path fill="none" stroke="#00ff00" stroke-dasharray="5,2" d="M234.8576,-441.2782C206.4331,-448.3212 169.0824,-462.2352 147.4091,-489 139.9732,-498.1828 136.1454,-510.252 134.2654,-521.7514"/>
<text text-anchor="middle" x="197.4091" y="-492.8" font-family="Courier,monospace" font-size="14.00" fill="#ffffff"> &#160;&#160;&#160;&#160;&#160;&#160;&#160;&#160;&#160;&#160;&#160;</text>
<text text-anchor="middle" x="163.2654" y="-510.5514" font-family="Courier,monospace" font-size="14.00" fill="#ffffff">Eth 0/1</text>
<text text-anchor="middle" x="205.8576" y="-430.0782" font-family="Courier,monospace" font-size="14.00" fill="#ffffff">Eth 0/1</text>
</g>
<!-- R5&#45;&#45;R2 -->
<g id="edge5" class="edge">
<title>R5&#45;&#45;R2</title>
<path fill="none" stroke="#00ff00" stroke-dasharray="5,2" d="M312.2122,-421.7816C333.2942,-413.0607 358.2773,-399.4954 374.4091,-380 382.1548,-370.6393 387.185,-358.5257 390.4471,-347.0402"/>
<text text-anchor="middle" x="432.4091" y="-368.8" font-family="Courier,monospace" font-size="14.00" fill="#ffffff"> &#160;&#160;&#160;&#160;&#160;&#160;&#160;&#160;&#160;&#160;&#160;</text>
<text text-anchor="middle" x="361.4471" y="-350.8402" font-family="Courier,monospace" font-size="14.00" fill="#ffffff">Eth 0/1</text>
<text text-anchor="middle" x="341.2122" y="-410.5816" font-family="Courier,monospace" font-size="14.00" fill="#ffffff">Eth 0/0</text>
</g>
<!-- R2&#45;&#45;SW1 -->
<g id="edge12" class="edge">
<title>R2&#45;&#45;SW1</title>
<path fill="none" stroke="#00ff00" stroke-dasharray="5,2" d="M435.1108,-295.0802C462.4365,-281.9344 491.4047,-261.8947 474.4091,-241 447.6578,-208.1113 325.8962,-194.4171 258.1836,-189.2647"/>
<text text-anchor="middle" x="529.4091" y="-244.8" font-family="Courier,monospace" font-size="14.00" fill="#ffffff"> &#160;&#160;&#160;&#160;&#160;&#160;&#160;&#160;&#160;&#160;&#160;</text>
<text text-anchor="middle" x="287.1836" y="-178.0647" font-family="Courier,monospace" font-size="14.00" fill="#ffffff">Eth 0/2</text>
<text text-anchor="middle" x="464.1108" y="-283.8802" font-family="Courier,monospace" font-size="14.00" fill="#ffffff">Eth 0/0</text>
</g>
<!-- R2&#45;&#45;R5 -->
<g id="edge13" class="edge">
<title>R2&#45;&#45;R5</title>
<path fill="none" stroke="#00ff00" stroke-dasharray="5,2" d="M357.7963,-315.802C328.3369,-322.0951 289.6468,-335.7188 270.4091,-365 264.1092,-374.589 262.8981,-386.632 263.8666,-397.9873"/>
<text text-anchor="middle" x="320.4091" y="-368.8" font-family="Courier,monospace" font-size="14.00" fill="#ffffff"> &#160;&#160;&#160;&#160;&#160;&#160;&#160;&#160;&#160;&#160;&#160;</text>
<text text-anchor="middle" x="234.8666" y="-386.7873" font-family="Courier,monospace" font-size="14.00" fill="#ffffff">Eth 0/0</text>
<text text-anchor="middle" x="328.7963" y="-304.602" font-family="Courier,monospace" font-size="14.00" fill="#ffffff">Eth 0/1</text>
</g>
<!-- R6 -->
<g id="node7" class="node">
<title>R6</title>
<polygon fill="#006699" stroke="#006699" points="680.9091,-223 603.9091,-223 603.9091,-150 680.9091,-150 680.9091,-223"/>
<text text-anchor="middle" x="642.4091" y="-182.8" font-family="Helvetica,sans-Serif" font-size="14.00" fill="#ffffff">R6</text>
</g>
<!-- R6&#45;&#45;R2 -->
<g id="edge11" class="edge">
<title>R6&#45;&#45;R2</title>
<path fill="none" stroke="#00ff00" stroke-dasharray="5,2" d="M617.8899,-223.2386C608.3586,-235.1499 596.5564,-247.4752 583.4091,-256 537.4443,-285.8042 474.7693,-299.7121 434.9396,-305.9073"/>
<text text-anchor="middle" x="650.4091" y="-244.8" font-family="Courier,monospace" font-size="14.00" fill="#ffffff"> &#160;&#160;&#160;&#160;&#160;&#160;&#160;&#160;&#160;&#160;&#160;</text>
<text text-anchor="middle" x="463.9396" y="-309.7073" font-family="Courier,monospace" font-size="14.00" fill="#ffffff">Eth 0/2</text>
<text text-anchor="middle" x="588.8899" y="-227.0386" font-family="Courier,monospace" font-size="14.00" fill="#ffffff">Eth 0/1</text>
</g>
</g>
</svg>
