<?xml version="1.0" encoding="UTF-8" standalone="no"?>
<!DOCTYPE svg PUBLIC "-//W3C//DTD SVG 1.1//EN"
 "http://www.w3.org/Graphics/SVG/1.1/DTD/svg11.dtd">
<!-- Generated by graphviz version 2.40.1 (20161225.0304)
 -->
<!-- Title: %3 Pages: 1 -->
<svg width="504pt" height="355pt"
 viewBox="0.00 0.00 503.57 355.00" xmlns="http://www.w3.org/2000/svg" xmlns:xlink="http://www.w3.org/1999/xlink">
<g id="graph0" class="graph" transform="scale(1 1) rotate(0) translate(4 351)">
<title>%3</title>
<polygon fill="#3f3f3f" stroke="transparent" points="-4,4 -4,-351 499.5661,-351 499.5661,4 -4,4"/>
<text text-anchor="middle" x="247.7831" y="-9.2" font-family="Times,serif" font-size="16.00" fill="#ffffff">Network Map</text>
<!-- SW1 -->
<g id="node1" class="node">
<title>SW1</title>
<polygon fill="#006699" stroke="#006699" points="314.0661,-223 223.0661,-223 223.0661,-150 314.0661,-150 314.0661,-223"/>
<text text-anchor="middle" x="268.5661" y="-182.8" font-family="Helvetica,sans-Serif" font-size="14.00" fill="#ffffff">SW1</text>
</g>
<!-- R2 -->
<g id="node2" class="node">
<title>R2</title>
<polygon fill="#006699" stroke="#006699" points="296.0661,-347 219.0661,-347 219.0661,-274 296.0661,-274 296.0661,-347"/>
<text text-anchor="middle" x="257.5661" y="-306.8" font-family="Helvetica,sans-Serif" font-size="14.00" fill="#ffffff">R2</text>
</g>
<!-- SW1&#45;&#45;R2 -->
<g id="edge6" class="edge">
<title>SW1&#45;&#45;R2</title>
<path fill="none" stroke="#00ff00" stroke-dasharray="5,2" d="M260.9975,-223.0262C260.0079,-229.0088 259.1398,-235.1601 258.5661,-241 257.5279,-251.5683 257.0853,-263.0833 256.9515,-273.6453"/>
<text text-anchor="middle" x="308.5661" y="-244.8" font-family="Courier,monospace" font-size="14.00" fill="#ffffff"> &#160;&#160;&#160;&#160;&#160;&#160;&#160;&#160;&#160;&#160;&#160;</text>
<text text-anchor="middle" x="227.9515" y="-262.4453" font-family="Courier,monospace" font-size="14.00" fill="#ffffff">Eth 0/0</text>
<text text-anchor="middle" x="231.9975" y="-226.8262" font-family="Courier,monospace" font-size="14.00" fill="#ffffff">Eth 0/2</text>
</g>
<!-- R5 -->
<g id="node3" class="node">
<title>R5</title>
<polygon fill="#006699" stroke="#006699" points="135.0661,-223 58.0661,-223 58.0661,-150 135.0661,-150 135.0661,-223"/>
<text text-anchor="middle" x="96.5661" y="-182.8" font-family="Helvetica,sans-Serif" font-size="14.00" fill="#ffffff">R5</text>
</g>
<!-- R5&#45;&#45;R2 -->
<g id="edge5" class="edge">
<title>R5&#45;&#45;R2</title>
<path fill="none" stroke="#00ff00" stroke-dasharray="5,2" d="M122.202,-223.2849C131.2561,-234.6565 142.0696,-246.6404 153.5661,-256 173.1682,-271.9585 198.1812,-285.244 218.7642,-294.7017"/>
<text text-anchor="middle" x="203.5661" y="-244.8" font-family="Courier,monospace" font-size="14.00" fill="#ffffff"> &#160;&#160;&#160;&#160;&#160;&#160;&#160;&#160;&#160;&#160;&#160;</text>
<text text-anchor="middle" x="189.7642" y="-283.5017" font-family="Courier,monospace" font-size="14.00" fill="#ffffff">Eth 0/1</text>
<text text-anchor="middle" x="93.202" y="-227.0849" font-family="Courier,monospace" font-size="14.00" fill="#ffffff">Eth 0/0</text>
</g>
<!-- R3 -->
<g id="node4" class="node">
<title>R3</title>
<polygon fill="#006699" stroke="#006699" points="330.0661,-99 253.0661,-99 253.0661,-26 330.0661,-26 330.0661,-99"/>
<text text-anchor="middle" x="291.5661" y="-58.8" font-family="Helvetica,sans-Serif" font-size="14.00" fill="#ffffff">R3</text>
</g>
<!-- R3&#45;&#45;SW1 -->
<g id="edge1" class="edge">
<title>R3&#45;&#45;SW1</title>
<path fill="none" stroke="#00ff00" stroke-dasharray="5,2" d="M284.7898,-99.0334C281.8216,-115.0358 278.3452,-133.7778 275.3735,-149.7992"/>
<text text-anchor="middle" x="330.5661" y="-120.8" font-family="Courier,monospace" font-size="14.00" fill="#ffffff"> &#160;&#160;&#160;&#160;&#160;&#160;&#160;&#160;&#160;&#160;&#160;</text>
<text text-anchor="middle" x="246.3735" y="-138.5992" font-family="Courier,monospace" font-size="14.00" fill="#ffffff">Eth 0/3</text>
<text text-anchor="middle" x="255.7898" y="-102.8334" font-family="Courier,monospace" font-size="14.00" fill="#ffffff">Eth 0/0</text>
</g>
<!-- R6 -->
<g id="node5" class="node">
<title>R6</title>
<polygon fill="#006699" stroke="#006699" points="419.0661,-223 342.0661,-223 342.0661,-150 419.0661,-150 419.0661,-223"/>
<text text-anchor="middle" x="380.5661" y="-182.8" font-family="Helvetica,sans-Serif" font-size="14.00" fill="#ffffff">R6</text>
</g>
<!-- R6&#45;&#45;R2 -->
<g id="edge7" class="edge">
<title>R6&#45;&#45;R2</title>
<path fill="none" stroke="#00ff00" stroke-dasharray="5,2" d="M374.604,-223.0402C371.342,-234.5257 366.3118,-246.6393 358.5661,-256 342.4342,-275.4954 317.4512,-289.0607 296.3692,-297.7816"/>
<text text-anchor="middle" x="416.5661" y="-244.8" font-family="Courier,monospace" font-size="14.00" fill="#ffffff"> &#160;&#160;&#160;&#160;&#160;&#160;&#160;&#160;&#160;&#160;&#160;</text>
<text text-anchor="middle" x="325.3692" y="-286.5816" font-family="Courier,monospace" font-size="14.00" fill="#ffffff">Eth 0/2</text>
<text text-anchor="middle" x="345.604" y="-226.8402" font-family="Courier,monospace" font-size="14.00" fill="#ffffff">Eth 0/1</text>
</g>
<!-- R1 -->
<g id="node6" class="node">
<title>R1</title>
<polygon fill="#006699" stroke="#006699" points="453.0661,-99 376.0661,-99 376.0661,-26 453.0661,-26 453.0661,-99"/>
<text text-anchor="middle" x="414.5661" y="-58.8" font-family="Helvetica,sans-Serif" font-size="14.00" fill="#ffffff">R1</text>
</g>
<!-- R1&#45;&#45;SW1 -->
<g id="edge4" class="edge">
<title>R1&#45;&#45;SW1</title>
<path fill="none" stroke="#00ff00" stroke-dasharray="5,2" d="M405.1451,-99.1968C400.5807,-110.9634 393.9783,-123.2088 384.5661,-132 366.9998,-148.4074 355.46,-140.0786 333.5661,-150 327.2004,-152.8846 320.6281,-156.1764 314.2196,-159.5751"/>
<text text-anchor="middle" x="445.5661" y="-120.8" font-family="Courier,monospace" font-size="14.00" fill="#ffffff"> &#160;&#160;&#160;&#160;&#160;&#160;&#160;&#160;&#160;&#160;&#160;</text>
<text text-anchor="middle" x="343.2196" y="-148.3751" font-family="Courier,monospace" font-size="14.00" fill="#ffffff">Eth 0/1</text>
<text text-anchor="middle" x="376.1451" y="-102.9968" font-family="Courier,monospace" font-size="14.00" fill="#ffffff">Eth 0/0</text>
</g>
<!-- R4 -->
<g id="node7" class="node">
<title>R4</title>
<polygon fill="#006699" stroke="#006699" points="145.0661,-99 68.0661,-99 68.0661,-26 145.0661,-26 145.0661,-99"/>
<text text-anchor="middle" x="106.5661" y="-58.8" font-family="Helvetica,sans-Serif" font-size="14.00" fill="#ffffff">R4</text>
</g>
<!-- R4&#45;&#45;SW1 -->
<g id="edge2" class="edge">
<title>R4&#45;&#45;SW1</title>
<path fill="none" stroke="#00ff00" stroke-dasharray="5,2" d="M138.7449,-99.0692C149.5433,-110.3027 162.039,-122.2603 174.5661,-132 189.4585,-143.5787 207.0595,-154.4276 222.9805,-163.3501"/>
<text text-anchor="middle" x="224.5661" y="-120.8" font-family="Courier,monospace" font-size="14.00" fill="#ffffff"> &#160;&#160;&#160;&#160;&#160;&#160;&#160;&#160;&#160;&#160;&#160;</text>
<text text-anchor="middle" x="193.9805" y="-167.1501" font-family="Courier,monospace" font-size="14.00" fill="#ffffff">Eth 0/4</text>
<text text-anchor="middle" x="109.7449" y="-102.8692" font-family="Courier,monospace" font-size="14.00" fill="#ffffff">Eth 0/0</text>
</g>
<!-- R4&#45;&#45;R5 -->
<g id="edge3" class="edge">
<title>R4&#45;&#45;R5</title>
<path fill="none" stroke="#00ff00" stroke-dasharray="5,2" d="M67.8744,-88.8952C59.2626,-96.8355 51.2936,-106.3194 46.5661,-117 40.3093,-131.1358 47.3882,-145.2565 58,-157.0414"/>
<text text-anchor="middle" x="96.5661" y="-120.8" font-family="Courier,monospace" font-size="14.00" fill="#ffffff"> &#160;&#160;&#160;&#160;&#160;&#160;&#160;&#160;&#160;&#160;&#160;</text>
<text text-anchor="middle" x="29" y="-145.8414" font-family="Courier,monospace" font-size="14.00" fill="#ffffff">Eth 0/1</text>
<text text-anchor="middle" x="38.8744" y="-77.6952" font-family="Courier,monospace" font-size="14.00" fill="#ffffff">Eth 0/1</text>
</g>
</g>
</svg>
