<?xml version="1.0" encoding="UTF-8" standalone="no"?>
<!DOCTYPE svg PUBLIC "-//W3C//DTD SVG 1.1//EN"
 "http://www.w3.org/Graphics/SVG/1.1/DTD/svg11.dtd">
<!-- Generated by graphviz version 2.40.1 (20161225.0304)
 -->
<!-- Title: %3 Pages: 1 -->
<svg width="605pt" height="479pt"
 viewBox="0.00 0.00 604.82 479.00" xmlns="http://www.w3.org/2000/svg" xmlns:xlink="http://www.w3.org/1999/xlink">
<g id="graph0" class="graph" transform="scale(1 1) rotate(0) translate(4 475)">
<title>%3</title>
<polygon fill="#333333" stroke="transparent" points="-4,4 -4,-475 600.8172,-475 600.8172,4 -4,4"/>
<text text-anchor="middle" x="298.4086" y="-9.2" font-family="Times,serif" font-size="16.00" fill="#ffffff">Network Map</text>
<!-- R4 -->
<g id="node1" class="node">
<title>R4</title>
<polygon fill="#006699" stroke="#006699" points="434.3172,-223 357.3172,-223 357.3172,-150 434.3172,-150 434.3172,-223"/>
<text text-anchor="middle" x="395.8172" y="-182.8" font-family="Helvetica,sans-Serif" font-size="14.00" fill="#ffffff">R4</text>
</g>
<!-- SW1 -->
<g id="node2" class="node">
<title>SW1</title>
<polygon fill="#006699" stroke="#006699" points="256.3172,-223 165.3172,-223 165.3172,-150 256.3172,-150 256.3172,-223"/>
<text text-anchor="middle" x="210.8172" y="-182.8" font-family="Helvetica,sans-Serif" font-size="14.00" fill="#ffffff">SW1</text>
</g>
<!-- R1 -->
<g id="node3" class="node">
<title>R1</title>
<polygon fill="#006699" stroke="#006699" points="127.3172,-347 50.3172,-347 50.3172,-274 127.3172,-274 127.3172,-347"/>
<text text-anchor="middle" x="88.8172" y="-306.8" font-family="Helvetica,sans-Serif" font-size="14.00" fill="#ffffff">R1</text>
</g>
<!-- SW1&#45;&#45;R1 -->
<g id="edge7" class="edge">
<title>SW1&#45;&#45;R1</title>
<path fill="none" stroke="#00ff00" stroke-dasharray="5,2" d="M164.9119,-194.2195C117.6144,-203.2193 48.6246,-219.6284 32.8172,-241 21.4834,-256.3234 33.9683,-272.966 50,-286.1228"/>
<text text-anchor="middle" x="82.8172" y="-244.8" font-family="Courier,monospace" font-size="14.00" fill="#ffffff"> &#160;&#160;&#160;&#160;&#160;&#160;&#160;&#160;&#160;&#160;&#160;</text>
<text text-anchor="middle" x="25" y="-274.9228" font-family="Courier,monospace" font-size="14.00" fill="#ffffff">Eth0/0</text>
<text text-anchor="middle" x="139.9119" y="-183.0195" font-family="Courier,monospace" font-size="14.00" fill="#ffffff">Eth0/1</text>
</g>
<!-- R2 -->
<g id="node4" class="node">
<title>R2</title>
<polygon fill="#006699" stroke="#006699" points="372.3172,-347 295.3172,-347 295.3172,-274 372.3172,-274 372.3172,-347"/>
<text text-anchor="middle" x="333.8172" y="-306.8" font-family="Helvetica,sans-Serif" font-size="14.00" fill="#ffffff">R2</text>
</g>
<!-- SW1&#45;&#45;R2 -->
<g id="edge8" class="edge">
<title>SW1&#45;&#45;R2</title>
<path fill="none" stroke="#00ff00" stroke-dasharray="5,2" d="M240.0692,-223.1955C249.2438,-234.0797 259.6406,-245.8078 269.8172,-256 277.654,-263.8488 286.4783,-271.8407 295.0131,-279.199"/>
<text text-anchor="middle" x="319.8172" y="-244.8" font-family="Courier,monospace" font-size="14.00" fill="#ffffff"> &#160;&#160;&#160;&#160;&#160;&#160;&#160;&#160;&#160;&#160;&#160;</text>
<text text-anchor="middle" x="270.0131" y="-267.999" font-family="Courier,monospace" font-size="14.00" fill="#ffffff">Eth0/0</text>
<text text-anchor="middle" x="215.0692" y="-226.9955" font-family="Courier,monospace" font-size="14.00" fill="#ffffff">Eth0/2</text>
</g>
<!-- R3 -->
<g id="node7" class="node">
<title>R3</title>
<polygon fill="#006699" stroke="#006699" points="372.3172,-99 295.3172,-99 295.3172,-26 372.3172,-26 372.3172,-99"/>
<text text-anchor="middle" x="333.8172" y="-58.8" font-family="Helvetica,sans-Serif" font-size="14.00" fill="#ffffff">R3</text>
</g>
<!-- SW1&#45;&#45;R3 -->
<g id="edge9" class="edge">
<title>SW1&#45;&#45;R3</title>
<path fill="none" stroke="#00ff00" stroke-dasharray="5,2" d="M240.0692,-149.8045C249.2438,-138.9203 259.6406,-127.1922 269.8172,-117 277.654,-109.1512 286.4783,-101.1593 295.0131,-93.801"/>
<text text-anchor="middle" x="319.8172" y="-120.8" font-family="Courier,monospace" font-size="14.00" fill="#ffffff"> &#160;&#160;&#160;&#160;&#160;&#160;&#160;&#160;&#160;&#160;&#160;</text>
<text text-anchor="middle" x="270.0131" y="-82.601" font-family="Courier,monospace" font-size="14.00" fill="#ffffff">Eth0/0</text>
<text text-anchor="middle" x="215.0692" y="-138.6045" font-family="Courier,monospace" font-size="14.00" fill="#ffffff">Eth0/3</text>
</g>
<!-- R1&#45;&#45;SW1 -->
<g id="edge1" class="edge">
<title>R1&#45;&#45;SW1</title>
<path fill="none" stroke="#00ff00" stroke-dasharray="5,2" d="M120.2946,-273.7682C129.8693,-262.9947 140.5734,-251.3362 150.8172,-241 156.6617,-235.1028 162.9992,-229.029 169.2921,-223.1733"/>
<text text-anchor="middle" x="200.8172" y="-244.8" font-family="Courier,monospace" font-size="14.00" fill="#ffffff"> &#160;&#160;&#160;&#160;&#160;&#160;&#160;&#160;&#160;&#160;&#160;</text>
<text text-anchor="middle" x="144.2921" y="-226.9733" font-family="Courier,monospace" font-size="14.00" fill="#ffffff">Eth0/1</text>
<text text-anchor="middle" x="95.2946" y="-262.5682" font-family="Courier,monospace" font-size="14.00" fill="#ffffff">Eth0/0</text>
</g>
<!-- R2&#45;&#45;SW1 -->
<g id="edge2" class="edge">
<title>R2&#45;&#45;SW1</title>
<path fill="none" stroke="#00ff00" stroke-dasharray="5,2" d="M371.4734,-273.9149C378.3056,-263.0345 381.22,-251.2808 373.8172,-241 359.8686,-221.6286 299.6839,-205.1824 256.5069,-195.5718"/>
<text text-anchor="middle" x="428.8172" y="-244.8" font-family="Courier,monospace" font-size="14.00" fill="#ffffff"> &#160;&#160;&#160;&#160;&#160;&#160;&#160;&#160;&#160;&#160;&#160;</text>
<text text-anchor="middle" x="281.5069" y="-184.3718" font-family="Courier,monospace" font-size="14.00" fill="#ffffff">Eth0/2</text>
<text text-anchor="middle" x="346.4734" y="-262.7149" font-family="Courier,monospace" font-size="14.00" fill="#ffffff">Eth0/0</text>
</g>
<!-- SW2 -->
<g id="node5" class="node">
<title>SW2</title>
<polygon fill="#006699" stroke="#006699" points="379.3172,-471 288.3172,-471 288.3172,-398 379.3172,-398 379.3172,-471"/>
<text text-anchor="middle" x="333.8172" y="-430.8" font-family="Helvetica,sans-Serif" font-size="14.00" fill="#ffffff">SW2</text>
</g>
<!-- R2&#45;&#45;SW2 -->
<g id="edge3" class="edge">
<title>R2&#45;&#45;SW2</title>
<path fill="none" stroke="#00ff00" stroke-dasharray="5,2" d="M333.8172,-347.0334C333.8172,-363.0358 333.8172,-381.7778 333.8172,-397.7992"/>
<text text-anchor="middle" x="383.8172" y="-368.8" font-family="Courier,monospace" font-size="14.00" fill="#ffffff"> &#160;&#160;&#160;&#160;&#160;&#160;&#160;&#160;&#160;&#160;&#160;</text>
<text text-anchor="middle" x="304.8172" y="-386.5992" font-family="Courier,monospace" font-size="14.00" fill="#ffffff">Eth0/11</text>
<text text-anchor="middle" x="308.8172" y="-350.8334" font-family="Courier,monospace" font-size="14.00" fill="#ffffff">Eth0/1</text>
</g>
<!-- R5 -->
<g id="node6" class="node">
<title>R5</title>
<polygon fill="#006699" stroke="#006699" points="557.3172,-223 480.3172,-223 480.3172,-150 557.3172,-150 557.3172,-223"/>
<text text-anchor="middle" x="518.8172" y="-182.8" font-family="Helvetica,sans-Serif" font-size="14.00" fill="#ffffff">R5</text>
</g>
<!-- R3&#45;&#45;R4 -->
<g id="edge5" class="edge">
<title>R3&#45;&#45;R4</title>
<path fill="none" stroke="#00ff00" stroke-dasharray="5,2" d="M363.2604,-99.2843C367.1252,-105.0244 370.7883,-111.035 373.8172,-117 379.0317,-127.269 383.3188,-139.0192 386.6791,-149.9001"/>
<text text-anchor="middle" x="430.8172" y="-120.8" font-family="Courier,monospace" font-size="14.00" fill="#ffffff"> &#160;&#160;&#160;&#160;&#160;&#160;&#160;&#160;&#160;&#160;&#160;</text>
<text text-anchor="middle" x="361.6791" y="-138.7001" font-family="Courier,monospace" font-size="14.00" fill="#ffffff">Eth0/0</text>
<text text-anchor="middle" x="338.2604" y="-103.0843" font-family="Courier,monospace" font-size="14.00" fill="#ffffff">Eth0/1</text>
</g>
<!-- R3&#45;&#45;SW1 -->
<g id="edge4" class="edge">
<title>R3&#45;&#45;SW1</title>
<path fill="none" stroke="#00ff00" stroke-dasharray="5,2" d="M295.2409,-68.5037C246.8531,-76.9135 168.1057,-93.8124 150.8172,-117 140.1457,-131.3128 150.2962,-146.4046 165.092,-158.8543"/>
<text text-anchor="middle" x="200.8172" y="-120.8" font-family="Courier,monospace" font-size="14.00" fill="#ffffff"> &#160;&#160;&#160;&#160;&#160;&#160;&#160;&#160;&#160;&#160;&#160;</text>
<text text-anchor="middle" x="140.092" y="-147.6543" font-family="Courier,monospace" font-size="14.00" fill="#ffffff">Eth0/3</text>
<text text-anchor="middle" x="270.2409" y="-57.3037" font-family="Courier,monospace" font-size="14.00" fill="#ffffff">Eth0/0</text>
</g>
<!-- R3&#45;&#45;R5 -->
<g id="edge6" class="edge">
<title>R3&#45;&#45;R5</title>
<path fill="none" stroke="#00ff00" stroke-dasharray="5,2" d="M372.3896,-68.106C405.6486,-74.7134 453.1765,-88.6216 484.8172,-117 494.6169,-125.7893 501.8962,-138.0342 507.1488,-149.801"/>
<text text-anchor="middle" x="546.8172" y="-120.8" font-family="Courier,monospace" font-size="14.00" fill="#ffffff"> &#160;&#160;&#160;&#160;&#160;&#160;&#160;&#160;&#160;&#160;&#160;</text>
<text text-anchor="middle" x="482.1488" y="-138.601" font-family="Courier,monospace" font-size="14.00" fill="#ffffff">Eth0/0</text>
<text text-anchor="middle" x="397.3896" y="-56.906" font-family="Courier,monospace" font-size="14.00" fill="#ffffff">Eth0/2</text>
</g>
</g>
</svg>
